<?xml version="1.0" standalone="no"?><!DOCTYPE svg PUBLIC "-//W3C//DTD SVG 1.1//EN" "http://www.w3.org/Graphics/SVG/1.1/DTD/svg11.dtd"><svg t="1544165294419" class="icon" style="" viewBox="0 0 1024 1024" version="1.1" xmlns="http://www.w3.org/2000/svg" p-id="2206" xmlns:xlink="http://www.w3.org/1999/xlink" width="200" height="200"><defs><style type="text/css"></style></defs><path d="M422.1 284.8c-13.7-16.9-30.8-30.7-50.7-41-20-10.2-43.2-15.4-69-15.4-25.3 0-48.5 5.3-69 15.9-20.4 10.4-38 24.5-52.3 41.7-14.3 17.2-25.3 37.1-32.7 59-7.5 21.9-11.3 44.7-11.3 67.8 0 23.5 3.4 46.4 10 68.1 6.7 21.7 16.7 41.2 30 57.9 13.1 16.7 29.3 30.2 48.3 40.2 19 10 40.9 15.1 65.1 15.1 9.1 0 16.9-0.4 23.1-1.2 6.5-0.9 12.3-2.3 17.7-4.2 5.5-1.9 11.3-4.6 17.3-8.2 3.6-2.1 7.5-4.5 11.6-7.1-7.6 17.3-15.3 32.9-22.9 46.8-9 16.5-18.8 32-29.2 46.1-10.2 13.9-21.1 26.9-32.3 38.6-11.2 11.8-23.5 23.3-36.6 34.3-7 5.8-11.1 12.1-12.2 18.6-1.2 6.5-0.6 12.6 1.8 18.1 2.3 5.5 6.1 10.3 11.4 14.1 5.3 3.9 11.2 5.8 17.8 5.8 15.4 0 42.7-22.2 83.6-67.8 18-20.7 34.6-44.1 49.5-69.6 14.7-25.2 27.7-52.1 38.4-80 10.6-27.5 19.1-55.7 25.1-83.8 6.1-28.4 9.2-55.8 9.2-81.7 0-23.9-3.5-47.3-10.5-69.3C446.2 321.3 435.7 301.6 422.1 284.8zM301.5 290.5c14.2 0 27.5 3.1 39.4 9.2 11.9 6.1 22 14.7 30.2 25.6 8.3 11.1 14.8 24.1 19.3 38.8 4.7 14.7 7 30.8 7 47.8 0 37.1-9.2 66.7-27.4 88-18 21.1-42.5 31.8-72.5 31.8-29 0-52.4-10.7-69.4-31.7-17.1-21.3-25.9-50.9-25.9-88.1 0-15.4 2.2-30.7 6.6-45.5 4.4-14.7 10.9-27.7 19.3-38.6 8.5-11 18.9-20.1 31.2-27C271.6 294 285.7 290.5 301.5 290.5z" p-id="2207"></path><path d="M517.5 696.2c-12.5 0-23.5 4.5-32.5 13.2-9 8.8-13.6 19.9-13.6 33 0 12 4.6 22.7 13.6 31.7 9 9 20 13.6 32.5 13.6 12.5 0 23.4-4.6 32.2-13.6 8.7-9 13.2-19.7 13.2-31.7 0-13.1-4.5-24.1-13.3-32.9S530.1 696.2 517.5 696.2z" p-id="2208"></path><path d="M876.5 343.4c-7-22.1-17.5-41.8-31.2-58.7-13.7-16.9-30.8-30.7-50.7-41-20-10.2-43.2-15.4-69-15.4-25.3 0-48.5 5.3-69 15.9-20.4 10.4-38 24.5-52.3 41.7-14.3 17.2-25.3 37.1-32.7 59-7.5 21.9-11.3 44.7-11.3 67.8 0 23.5 3.4 46.4 10 68.1 6.7 21.7 16.7 41.2 30 57.9 13.1 16.7 29.3 30.2 48.3 40.2 19 10 40.9 15.1 65.1 15.1 9.1 0 16.9-0.4 23.1-1.2 6.5-0.9 12.3-2.3 17.7-4.2 5.5-1.9 11.3-4.6 17.3-8.2 3.6-2.1 7.5-4.5 11.6-7.1-7.6 17.3-15.3 32.9-22.9 46.8-9 16.5-18.8 32-29.2 46.1C721.1 680 710.2 693 699 704.7c-11.2 11.8-23.5 23.3-36.7 34.3-7 5.8-11.1 12.1-12.2 18.6-1.2 6.5-0.6 12.6 1.8 18.1 2.3 5.5 6.1 10.3 11.4 14.1 5.3 3.9 11.2 5.8 17.8 5.8 15.4 0 42.7-22.2 83.6-67.8 18-20.7 34.6-44.1 49.5-69.6 14.7-25.2 27.7-52.1 38.4-80 10.6-27.5 19.1-55.7 25.1-83.8 6.1-28.4 9.2-55.8 9.2-81.7C887 388.8 883.5 365.5 876.5 343.4zM724.8 290.5c14.2 0 27.5 3.1 39.4 9.2 11.9 6.1 22 14.7 30.2 25.6 8.3 11.1 14.8 24.1 19.3 38.8 4.7 14.7 7 30.8 7 47.8 0 37.1-9.2 66.7-27.4 88-18 21.1-42.5 31.8-72.5 31.8-29 0-52.4-10.7-69.4-31.7-17.1-21.3-25.9-50.9-25.9-88.1 0-15.4 2.2-30.7 6.6-45.5 4.4-14.7 10.9-27.7 19.3-38.6 8.5-11 18.9-20.1 31.2-27C694.9 294 709.1 290.5 724.8 290.5z" p-id="2209"></path></svg>