<?xml version="1.0" standalone="no"?><!DOCTYPE svg PUBLIC "-//W3C//DTD SVG 1.1//EN" "http://www.w3.org/Graphics/SVG/1.1/DTD/svg11.dtd"><svg t="1544172758670" class="icon" style="" viewBox="0 0 1024 1024" version="1.1" xmlns="http://www.w3.org/2000/svg" p-id="1030" xmlns:xlink="http://www.w3.org/1999/xlink" width="200" height="200"><defs><style type="text/css"></style></defs><path d="M591.6 523.6H272.3c-13.8 0-25 11.2-25 25s11.2 25 25 25h319.3c13.8 0 25-11.2 25-25s-11.2-25-25-25zM475 648.5H272.3c-13.8 0-25 11.2-25 25s11.2 25 25 25H475c13.8 0 25-11.2 25-25s-11.2-25-25-25z" p-id="1031"></path><path d="M861.1 510.6l-108.4-66.7V381v-0.2-1.1-0.6-0.6c0-0.3-0.1-0.5-0.1-0.8 0-0.1 0-0.3-0.1-0.4 0-0.3-0.1-0.5-0.1-0.8 0-0.1 0-0.2-0.1-0.4-0.1-0.3-0.1-0.5-0.2-0.8 0-0.1-0.1-0.2-0.1-0.4-0.1-0.3-0.1-0.5-0.2-0.8 0-0.1-0.1-0.3-0.1-0.4-0.1-0.2-0.2-0.5-0.2-0.7-0.1-0.2-0.1-0.3-0.2-0.5s-0.2-0.4-0.2-0.6c-0.1-0.2-0.1-0.3-0.2-0.5s-0.2-0.4-0.2-0.6l-0.3-0.6c-0.1-0.2-0.2-0.3-0.2-0.5l-0.3-0.6c-0.1-0.1-0.1-0.3-0.2-0.4-0.1-0.2-0.2-0.4-0.4-0.7-0.1-0.1-0.2-0.2-0.2-0.4-0.1-0.2-0.3-0.4-0.4-0.7-0.1-0.1-0.2-0.2-0.2-0.4-0.1-0.2-0.3-0.4-0.5-0.6-0.1-0.1-0.2-0.3-0.3-0.4-0.1-0.2-0.3-0.4-0.4-0.6-0.1-0.2-0.3-0.3-0.4-0.5-0.1-0.1-0.2-0.3-0.4-0.4l-0.9-0.9-225.2-224.7-0.1-0.1c-0.3-0.3-0.5-0.5-0.8-0.7-0.2-0.1-0.3-0.3-0.5-0.4l-0.4-0.4c-0.2-0.2-0.4-0.3-0.6-0.5-0.1-0.1-0.2-0.2-0.4-0.3-0.2-0.2-0.4-0.3-0.7-0.5-0.1-0.1-0.2-0.2-0.3-0.2-0.2-0.2-0.5-0.3-0.7-0.4-0.1-0.1-0.2-0.1-0.3-0.2-0.2-0.1-0.5-0.3-0.7-0.4-0.1-0.1-0.3-0.1-0.4-0.2-0.2-0.1-0.4-0.2-0.7-0.3-0.2-0.1-0.3-0.2-0.5-0.2l-0.6-0.3c-0.2-0.1-0.4-0.2-0.5-0.2-0.2-0.1-0.4-0.1-0.5-0.2-0.2-0.1-0.4-0.2-0.6-0.2-0.2-0.1-0.3-0.1-0.5-0.2s-0.5-0.2-0.7-0.2c-0.1 0-0.3-0.1-0.4-0.1-0.3-0.1-0.5-0.1-0.8-0.2-0.1 0-0.2-0.1-0.4-0.1-0.3-0.1-0.5-0.1-0.8-0.2-0.1 0-0.2 0-0.4-0.1-0.3 0-0.5-0.1-0.8-0.1-0.1 0-0.3 0-0.4-0.1-0.3 0-0.5-0.1-0.8-0.1H221.7c-39 0-70.7 31.7-70.7 70.7v620.3c0 39 31.7 70.7 70.7 70.7h460.2c34.8 0 63.7-25.2 69.6-58.3H848c13.8 0 25-11.2 25-25V531.9c0-8.7-4.5-16.7-11.9-21.3zM527.7 216.5L667.3 356H527.7V216.5z m175 605.7c0 11.4-9.3 20.7-20.7 20.7H221.7c-11.4 0-20.7-9.3-20.7-20.7V201.8c0-11.4 9.3-20.7 20.7-20.7h256V381c0 13.8 11.2 25 25 25h199.9v416.2zM823 784.6h-70.3v-282l70.3 43.3v238.7z" p-id="1032"></path></svg>