<?xml version="1.0" standalone="no"?><!DOCTYPE svg PUBLIC "-//W3C//DTD SVG 1.1//EN" "http://www.w3.org/Graphics/SVG/1.1/DTD/svg11.dtd"><svg t="1550647509626" class="icon" style="" viewBox="0 0 1879 1024" version="1.1" xmlns="http://www.w3.org/2000/svg" p-id="7692" xmlns:xlink="http://www.w3.org/1999/xlink" width="939.5" height="512"><defs><style type="text/css"></style></defs><path d="M1166.20578 236.763006l-0.44393-75.912139s6.65896-53.863584-61.410405-53.863584H581.549133S535.824277 105.063584 535.824277 150.936416v657.905202s4.883237 53.419653 57.415029 53.419654h133.623122s27.079769 4.883237 27.079769 33.442774-25.304046 29.447399-25.304047 29.447399l-167.361849-0.295954s-88.63815-15.981503-89.082081-99.884393-0.443931-667.375723-0.443931-667.375722-10.802312-113.646243 113.054335-113.646243 543.075145 0.887861 543.075145 0.887861 97.66474 0.739884 99.292485 90.709827c1.775723 89.969942 1.479769 103.139884 1.479769 103.139884s-3.699422 29.299422-30.483237 29.299422c-26.487861 0-31.815029-27.375723-31.963006-31.223121z" fill="#707070" p-id="7693"></path><path d="M1040.57341 510.816185v127.260116s-1.331792 14.797688 12.134104 28.707514c13.465896 14.057803 124.004624 126.076301 124.004625 126.076301s21.160694 10.506358 38.917919-7.250867-2.515607-41.581503-2.515607-41.581503l-102.843931-108.615029s-7.546821-4.883237-7.546821-25.008093-0.295954-99.736416-0.295953-99.736416-8.434682-26.191908-29.743353-26.191907c-21.160694 0-31.815029 17.905202-32.110983 26.339884z" fill="#707070" p-id="7694"></path><path d="M1101.983815 361.063584c-172.836994 0-312.971098 140.134104-312.971098 312.971098S929.146821 987.00578 1101.983815 987.00578s312.971098-140.134104 312.971098-312.971098S1274.820809 361.063584 1101.983815 361.063584z m0 565.271676c-139.39422 0-252.300578-112.906358-252.300578-252.300578S962.589595 421.734104 1101.983815 421.734104s252.300578 112.906358 252.300578 252.300578S1241.378035 926.33526 1101.983815 926.33526zM735.001156 484.476301h-84.642774c-13.613873 0-24.860116-11.098266-24.860116-24.860116v-13.317919c0-13.613873 11.098266-24.860116 24.860116-24.860116h84.642774c13.613873 0 24.860116 11.098266 24.860116 24.860116v13.317919c0 13.76185-11.246243 24.860116-24.860116 24.860116zM1050.191908 295.657803H650.506358c-13.613873 0-24.860116-11.098266-24.860115-24.860115v-13.317919c0-13.613873 11.098266-24.860116 24.860115-24.860116h399.68555c13.613873 0 24.860116 11.098266 24.860115 24.860116v13.317919c0 13.76185-11.246243 24.860116-24.860115 24.860115z" fill="#707070" p-id="7695"></path></svg>