<?xml version="1.0" standalone="no"?><!DOCTYPE svg PUBLIC "-//W3C//DTD SVG 1.1//EN" "http://www.w3.org/Graphics/SVG/1.1/DTD/svg11.dtd"><svg t="1550648365529" class="icon" style="" viewBox="0 0 1560 1024" version="1.1" xmlns="http://www.w3.org/2000/svg" p-id="13548" xmlns:xlink="http://www.w3.org/1999/xlink" width="780" height="512"><defs><style type="text/css"></style></defs><path d="M1209.98095678 141.21142578H362.46421591a141.25279014 141.25279014 0 0 0-141.25279014 141.25279015v459.07156814a141.25279014 141.25279014 0 0 0 141.25279014 141.25279015h847.51674087a141.25279014 141.25279014 0 0 0 141.25279014-141.25279015V282.46421593a141.25279014 141.25279014 0 0 0-141.25279014-141.25279015zM291.83782122 326.60571289l247.19238256 185.39428711-247.19238256 185.39428711zM1280.6073522 741.53578407a70.62639545 70.62639545 0 0 1-70.62639542 70.62639471H362.46421591a70.62639545 70.62639545 0 0 1-70.6263947-70.62639471l276.50233656-207.28846962 154.31867341 115.47415628a105.93959243 105.93959243 0 0 0 127.12751106 1e-8l154.31867341-115.82728823L1280.6073522 741.53578407z m0-44.14149696l-247.19238256-185.39428711 247.19238256-185.39428711zM828.5984236 621.47091256a70.62639545 70.62639545 0 0 1-84.75167452 0l-145.84350537-109.47091256-29.30995401-21.89418251L291.83782122 282.46421593a70.62639545 70.62639545 0 0 1 70.62639469-70.62639471h847.51674087a70.62639545 70.62639545 0 0 1 70.62639542 70.62639471z" fill="#99CC66" p-id="13549"></path></svg>