<?xml version="1.0" standalone="no"?><!DOCTYPE svg PUBLIC "-//W3C//DTD SVG 1.1//EN" "http://www.w3.org/Graphics/SVG/1.1/DTD/svg11.dtd"><svg t="1550648062959" class="icon" style="" viewBox="0 0 1024 1024" version="1.1" xmlns="http://www.w3.org/2000/svg" p-id="12582" xmlns:xlink="http://www.w3.org/1999/xlink" width="512" height="512"><defs><style type="text/css"></style></defs><path d="M403.7 36.6h-0.5v-0.1H349v-0.1H98.6c-35.3 2.5-63.3 31.9-63.3 67.9v0.5h-0.1v54.1h-0.1v246c1.8 36 31.6 64.5 68 64.5h0.5v0.1h307.5c29.5-3.3 53.3-25.4 59.1-54.1V90.6c-6.4-30.8-33.7-54-66.5-54zM919.6 36.6h-0.5v-0.1H865v-0.1H614.6c-35.3 2.5-63.3 31.9-63.3 67.9v0.5h-0.1v54.1h-0.1v246c1.8 36 31.6 64.5 68 64.5h0.5v0.1h307.5c29.5-3.3 53.3-25.4 59.1-54.1V90.6c-6.4-30.8-33.8-54-66.6-54zM403.7 551H349v-0.1H98.6c-35.3 2.5-63.3 31.9-63.3 67.9v0.5h-0.1v54.1h-0.1v246c1.8 36 31.6 64.5 68 64.5h0.5v0.1h307.5c29.5-3.3 53.3-25.4 59.1-54.1V605.1c-6.4-30.9-33.7-54.1-66.5-54.1zM919.6 551H865v-0.1H614.6c-35.3 2.5-63.3 31.9-63.3 67.9v0.5h-0.1v54.1h-0.1v246c1.8 36 31.6 64.5 68 64.5h0.5v0.1h307.5c29.5-3.3 53.3-25.4 59.1-54.1V605.1c-6.4-30.9-33.8-54.1-66.6-54.1z" fill="#66CC99" p-id="12583"></path></svg>